<svg xmlns="http://www.w3.org/2000/svg" width="60" height="59.94">
  <path fill="#00b1ff" fill-rule="evenodd" d="M59.271 13.6l-11.79-3.78a1.166 1.166 0 0 0-.453-.05 1.017 1.017 0 0 0-.452.17l-6.609 4.21a1.033 1.033 0 0 0-.479.87v11.55l-.366-.03V7.89a1.044 1.044 0 0 0-.727-.99L17.022.04a1.367 1.367 0 0 0-.476-.04 1.328 1.328 0 0 0-.474.19L.449 11.07a1.042 1.042 0 0 0-.445.85v38.63a1.033 1.033 0 0 0 .55.91l15.628 8.36a.968.968 0 0 0 .384.12.98.98 0 0 0 .384-.02l21.373-5.27 9.092-2.24 11.787-2.91a1.034 1.034 0 0 0 .8-1V14.59a1.043 1.043 0 0 0-.731-.99zM3.189 45.67a.336.336 0 0 1-.15.28.375.375 0 0 1-.2.07.272.272 0 0 1-.123-.03l-.913-.32a.349.349 0 0 1-.231-.33v-2.83a.36.36 0 0 1 .138-.28.418.418 0 0 1 .309-.06l.912.25a.347.347 0 0 1 .258.33v2.92zm0-5.83a.324.324 0 0 1-.128.26.365.365 0 0 1-.225.08h-.065l-.913-.17a.345.345 0 0 1-.288-.34v-2.84a.329.329 0 0 1 .116-.25.341.341 0 0 1 .272-.09l.912.09a.344.344 0 0 1 .318.34v2.92zm0-5.83a.327.327 0 0 1-.1.24.379.379 0 0 1-.248.1l-.913-.01a.345.345 0 0 1-.351-.34v-2.84a.341.341 0 0 1 .324-.34l.913-.08a.418.418 0 0 1 .267.09.352.352 0 0 1 .114.26v2.92zm0-5.84a.347.347 0 0 1-.292.34l-.913.16h-.06a.372.372 0 0 1-.228-.08.331.331 0 0 1-.126-.26v-2.84a.34.34 0 0 1 .262-.33l.913-.24a.369.369 0 0 1 .306.06.353.353 0 0 1 .135.27v2.92zm0-5.83a.349.349 0 0 1-.235.33l-.913.31a.463.463 0 0 1-.117.02.364.364 0 0 1-.2-.06.351.351 0 0 1-.149-.28v-2.84a.352.352 0 0 1 .21-.32l.913-.39a.338.338 0 0 1 .336.03.333.333 0 0 1 .159.28v2.92zm0-5.83a.335.335 0 0 1-.187.3l-.913.48a.475.475 0 0 1-.165.04.392.392 0 0 1-.183-.05.337.337 0 0 1-.171-.3v-2.83a.332.332 0 0 1 .166-.29l.912-.56a.353.353 0 0 1 .358-.01.345.345 0 0 1 .182.3v2.92zm3.078 30.27a.349.349 0 0 1-.15.28.367.367 0 0 1-.2.06.262.262 0 0 1-.122-.02l-1.088-.39a.346.346 0 0 1-.231-.32v-3.1a.353.353 0 0 1 .138-.27.344.344 0 0 1 .309-.06l1.086.3a.338.338 0 0 1 .259.33v3.19zm0-6.38a.362.362 0 0 1-.128.27.37.37 0 0 1-.226.08c-.022 0-.043-.01-.065-.01l-1.087-.2a.345.345 0 0 1-.288-.34v-3.09a.317.317 0 0 1 .116-.25.346.346 0 0 1 .272-.09l1.087.1a.354.354 0 0 1 .319.35v3.18zm0-6.37a.321.321 0 0 1-.1.24.335.335 0 0 1-.248.1h-1.09a.36.36 0 0 1-.351-.35v-3.09a.34.34 0 0 1 .324-.34l1.088-.09a.335.335 0 0 1 .268.09.318.318 0 0 1 .113.25v3.19zm0-6.38a.347.347 0 0 1-.292.34l-1.088.19h-.06a.379.379 0 0 1-.229-.08.345.345 0 0 1-.125-.26v-3.09a.351.351 0 0 1 .262-.34l1.088-.28a.4.4 0 0 1 .3.06.357.357 0 0 1 .138.28v3.18zm0-6.37a.327.327 0 0 1-.236.32l-1.087.38a.47.47 0 0 1-.117.02.366.366 0 0 1-.2-.06.353.353 0 0 1-.149-.29v-3.09a.337.337 0 0 1 .21-.31l1.087-.47a.347.347 0 0 1 .5.31v3.19zm0-6.37a.346.346 0 0 1-.187.3l-1.086.57a.481.481 0 0 1-.166.04.392.392 0 0 1-.183-.05.362.362 0 0 1-.171-.3v-3.09a.335.335 0 0 1 .166-.29l1.088-.66a.353.353 0 0 1 .358-.01.335.335 0 0 1 .181.3v3.19zm3.709 33.2a.336.336 0 0 1-.15.28.366.366 0 0 1-.2.06.262.262 0 0 1-.123-.02l-1.318-.47a.346.346 0 0 1-.231-.32v-3.4a.355.355 0 0 1 .139-.28.366.366 0 0 1 .306-.05l1.319.35a.35.35 0 0 1 .258.34v3.51zm0-7.03a.362.362 0 0 1-.128.27.37.37 0 0 1-.225.08c-.022 0-.044-.01-.065-.01l-1.319-.24a.344.344 0 0 1-.287-.34v-3.4a.335.335 0 0 1 .115-.25.341.341 0 0 1 .271-.09l1.318.13a.338.338 0 0 1 .319.34v3.51zm0-7.02a.322.322 0 0 1-.105.24.372.372 0 0 1-.246.1l-1.318-.01a.343.343 0 0 1-.349-.34v-3.4a.357.357 0 0 1 .323-.35l1.319-.1a.334.334 0 0 1 .268.09.318.318 0 0 1 .113.25v3.52zm0-7.03a.347.347 0 0 1-.293.34l-1.318.22a.129.129 0 0 1-.061.01.373.373 0 0 1-.227-.08.366.366 0 0 1-.125-.27v-3.4a.347.347 0 0 1 .262-.33l1.318-.34a.4.4 0 0 1 .3.06.361.361 0 0 1 .139.28v3.51zm0-7.03a.349.349 0 0 1-.235.33l-1.319.45a.463.463 0 0 1-.118.02.37.37 0 0 1-.2-.06.35.35 0 0 1-.148-.28v-3.4a.351.351 0 0 1 .209-.32l1.318-.57a.394.394 0 0 1 .335.03.334.334 0 0 1 .161.29V20zm0-7.02a.346.346 0 0 1-.187.3l-1.319.68a.324.324 0 0 1-.166.04.378.378 0 0 1-.181-.04.362.362 0 0 1-.171-.3v-3.4a.332.332 0 0 1 .166-.29l1.317-.8a.355.355 0 0 1 .359-.01.345.345 0 0 1 .182.3v3.52zm4.555 36.77a.336.336 0 0 1-.15.28.37.37 0 0 1-.2.06.518.518 0 0 1-.121-.02l-1.63-.59a.346.346 0 0 1-.231-.32v-3.77a.357.357 0 0 1 .138-.28.369.369 0 0 1 .307-.05l1.63.44a.347.347 0 0 1 .259.33v3.92zm0-7.83a.327.327 0 0 1-.128.26.37.37 0 0 1-.226.08h-.065l-1.63-.3a.353.353 0 0 1-.287-.34v-3.77a.354.354 0 0 1 .116-.26.377.377 0 0 1 .27-.09l1.63.16a.352.352 0 0 1 .319.34v3.92zm0-7.83a.321.321 0 0 1-.1.24.336.336 0 0 1-.249.1l-1.63-.01a.344.344 0 0 1-.35-.34V30.3a.347.347 0 0 1 .324-.34l1.628-.13a.336.336 0 0 1 .27.09.34.34 0 0 1 .113.25v3.92zm0-7.83a.347.347 0 0 1-.294.34l-1.628.27a.135.135 0 0 1-.062.01.376.376 0 0 1-.227-.08.345.345 0 0 1-.125-.26v-3.77a.35.35 0 0 1 .262-.34l1.63-.42a.4.4 0 0 1 .3.06.358.358 0 0 1 .139.28v3.91zm0-7.83a.348.348 0 0 1-.236.33l-1.63.56a.47.47 0 0 1-.118.02.365.365 0 0 1-.2-.06.353.353 0 0 1-.149-.29v-3.77a.337.337 0 0 1 .209-.31l1.63-.71a.362.362 0 0 1 .335.03.334.334 0 0 1 .161.29v3.91zm0-7.83a.349.349 0 0 1-.188.31l-1.63.85a.465.465 0 0 1-.166.04.391.391 0 0 1-.181-.05.362.362 0 0 1-.171-.3V7.68a.332.332 0 0 1 .166-.29l1.629-1a.353.353 0 0 1 .358 0 .337.337 0 0 1 .182.3v3.91zm8.657 39.03a.348.348 0 0 1-.295.34l-3.761.62c-.021 0-.039.01-.059.01a.376.376 0 0 1-.228-.08.363.363 0 0 1-.126-.27v-4.04a.347.347 0 0 1 .307-.34l3.763-.47a.359.359 0 0 1 .278.09.332.332 0 0 1 .12.26v3.88zm0-7.77a.34.34 0 0 1-.322.34l-3.763.32h-.03a.349.349 0 0 1-.354-.34v-4.01a.35.35 0 0 1 .337-.35l3.763-.16a.345.345 0 0 1 .258.09.354.354 0 0 1 .11.25v3.86zm0-7.77a.345.345 0 0 1-.352.34l-3.762.02a.34.34 0 0 1-.249-.11.324.324 0 0 1-.1-.24v-4.04a.321.321 0 0 1 .108-.24.318.318 0 0 1 .257-.1l3.763.14a.343.343 0 0 1 .339.34v3.89zm0-7.78a.346.346 0 0 1-.354.35h-.027l-3.761-.29a.358.358 0 0 1-.325-.35v-4.04a.316.316 0 0 1 .118-.25.354.354 0 0 1 .277-.09l3.761.45a.348.348 0 0 1 .311.34v3.88zm0-7.77a.347.347 0 0 1-.125.27.375.375 0 0 1-.229.08h-.056l-3.762-.6a.349.349 0 0 1-.3-.34v-4.04a.34.34 0 0 1 .131-.27.38.38 0 0 1 .294-.07l3.761.75a.343.343 0 0 1 .283.34v3.88zm0-7.77a.323.323 0 0 1-.136.27.355.355 0 0 1-.218.08c-.027 0-.056-.01-.083-.01l-3.761-.9a.353.353 0 0 1-.269-.34V5.83a.358.358 0 0 1 .139-.28.376.376 0 0 1 .31-.05l3.761 1.05a.358.358 0 0 1 .256.34v3.88zm6.731 37.75a.356.356 0 0 1-.295.34l-3.243.53a.121.121 0 0 1-.059.01.373.373 0 0 1-.227-.08.367.367 0 0 1-.126-.27v-3.74a.346.346 0 0 1 .308-.34l3.242-.41a.391.391 0 0 1 .278.08.351.351 0 0 1 .121.26v3.62zm0-7.23a.34.34 0 0 1-.323.34l-3.242.28h-.03a.35.35 0 0 1-.239-.09.356.356 0 0 1-.115-.26v-3.74a.343.343 0 0 1 .338-.34l3.243-.15a.356.356 0 0 1 .258.1.322.322 0 0 1 .11.25v3.61zm0-7.23a.354.354 0 0 1-.353.35l-3.242.01a.337.337 0 0 1-.249-.1.324.324 0 0 1-.1-.24v-3.75a.36.36 0 0 1 .108-.25.348.348 0 0 1 .259-.09l3.241.12a.351.351 0 0 1 .341.34v3.61zm0-7.22a.347.347 0 0 1-.354.34h-.029l-3.242-.25a.358.358 0 0 1-.325-.35v-3.74a.347.347 0 0 1 .12-.26.382.382 0 0 1 .275-.08l3.243.38a.359.359 0 0 1 .311.35v3.61zm0-7.23a.366.366 0 0 1-.354.35c-.02 0-.038-.01-.056-.01l-3.243-.51a.357.357 0 0 1-.3-.34v-3.75a.361.361 0 0 1 .13-.27.383.383 0 0 1 .294-.07l3.243.65a.343.343 0 0 1 .283.34v3.61zm0-7.22a.356.356 0 0 1-.135.27.423.423 0 0 1-.218.07.242.242 0 0 1-.084-.01l-3.243-.78a.334.334 0 0 1-.269-.33V7.86a.336.336 0 0 1 .141-.27.342.342 0 0 1 .308-.06l3.243.91a.346.346 0 0 1 .256.33v3.62zm5.848 35.16a.347.347 0 0 1-.294.34l-2.825.47h-.06a.376.376 0 0 1-.227-.08.342.342 0 0 1-.125-.26v-3.49a.357.357 0 0 1 .307-.35l2.824-.35a.394.394 0 0 1 .279.08.347.347 0 0 1 .12.26v3.38zm0-6.75a.347.347 0 0 1-.323.34l-2.824.24h-.032a.356.356 0 0 1-.239-.09.349.349 0 0 1-.113-.25v-3.5a.348.348 0 0 1 .337-.34l2.824-.12a.347.347 0 0 1 .259.09.358.358 0 0 1 .11.25v3.38zm0-6.76a.353.353 0 0 1-.353.35l-2.824.01a.375.375 0 0 1-.248-.1.344.344 0 0 1-.1-.24v-3.5a.317.317 0 0 1 .108-.24.354.354 0 0 1 .258-.1l2.824.1a.354.354 0 0 1 .34.35v3.37zm0-6.75a.355.355 0 0 1-.114.26.4.4 0 0 1-.24.09.031.031 0 0 1-.027-.01l-2.825-.22a.341.341 0 0 1-.324-.34v-3.49a.349.349 0 0 1 .119-.26.387.387 0 0 1 .277-.08l2.823.34a.341.341 0 0 1 .311.34v3.37zm0-6.75a.332.332 0 0 1-.124.26.326.326 0 0 1-.23.08h-.056l-2.825-.45a.348.348 0 0 1-.3-.34V16.6a.36.36 0 0 1 .129-.27.387.387 0 0 1 .295-.07l2.825.56a.36.36 0 0 1 .282.34v3.38zm0-6.75a.354.354 0 0 1-.136.27.339.339 0 0 1-.218.07.245.245 0 0 1-.084-.01l-2.824-.67a.353.353 0 0 1-.268-.34V9.62a.356.356 0 0 1 .14-.28.372.372 0 0 1 .309-.05l2.825.79a.347.347 0 0 1 .255.33v3.38zm11.736 37.62a.349.349 0 0 1-.266.33l-9.092 2.24a.245.245 0 0 1-.085.01.342.342 0 0 1-.217-.07.353.353 0 0 1-.135-.27V34.04c0-.04.054-3.62 5.187-3.43 4.558.16 4.61 3.36 4.61 3.4v17.4zm3.819-6.44a.34.34 0 0 1-.294.34l-1.856.31a.127.127 0 0 1-.06.01.373.373 0 0 1-.227-.08.362.362 0 0 1-.125-.27v-2.82a.347.347 0 0 1 .307-.34l1.857-.23a.318.318 0 0 1 .278.08.335.335 0 0 1 .12.26v2.74zm0-5.49a.34.34 0 0 1-.323.34l-1.857.16h-.03a.356.356 0 0 1-.239-.09.318.318 0 0 1-.113-.25v-2.82a.335.335 0 0 1 .337-.34l1.857-.09a.354.354 0 0 1 .258.1.322.322 0 0 1 .11.25v2.74zm0-5.51a.345.345 0 0 1-.351.34l-1.857.01a.375.375 0 0 1-.248-.1.344.344 0 0 1-.1-.24v-2.8a.359.359 0 0 1 .107-.25.355.355 0 0 1 .259-.1l1.855.07a.353.353 0 0 1 .341.35v2.72zm0-5.47a.337.337 0 0 1-.114.25.353.353 0 0 1-.24.09h-.027l-1.857-.14a.358.358 0 0 1-.324-.35v-2.82a.329.329 0 0 1 .119-.25.35.35 0 0 1 .275-.09l1.857.22a.348.348 0 0 1 .311.34v2.75zm0-5.49a.33.33 0 0 1-.125.26.322.322 0 0 1-.229.08h-.056l-1.857-.29a.359.359 0 0 1-.3-.35v-2.82a.323.323 0 0 1 .13-.26.347.347 0 0 1 .295-.07l1.856.36a.36.36 0 0 1 .283.34v2.75zm0-5.49a.358.358 0 0 1-.134.27.349.349 0 0 1-.219.07.236.236 0 0 1-.083-.01l-1.859-.44a.353.353 0 0 1-.267-.34v-2.82a.32.32 0 0 1 .141-.27.343.343 0 0 1 .309-.06l1.856.52a.346.346 0 0 1 .256.33v2.75zm3.431 26.89a.339.339 0 0 1-.3.33l-1.671.28c-.019 0-.039.01-.059.01a.378.378 0 0 1-.228-.08.362.362 0 0 1-.125-.27v-2.67a.348.348 0 0 1 .308-.34l1.67-.21a.317.317 0 0 1 .278.08.347.347 0 0 1 .12.26v2.61zm0-5.22a.357.357 0 0 1-.323.35l-1.67.14h-.03a.349.349 0 0 1-.354-.34v-2.68a.343.343 0 0 1 .338-.34l1.67-.08a.355.355 0 0 1 .259.1.322.322 0 0 1 .11.25v2.6zm0-5.21a.354.354 0 0 1-.353.35h-1.672a.333.333 0 0 1-.248-.1.328.328 0 0 1-.1-.24v-2.68a.36.36 0 0 1 .108-.25.346.346 0 0 1 .258-.09l1.671.06a.35.35 0 0 1 .34.34v2.61zm0-5.21a.334.334 0 0 1-.114.25.351.351 0 0 1-.24.09h-.028l-1.67-.13a.341.341 0 0 1-.325-.34v-2.68a.347.347 0 0 1 .12-.26.386.386 0 0 1 .276-.08l1.67.2a.341.341 0 0 1 .311.34v2.61zm0-5.22a.363.363 0 0 1-.126.27.374.374 0 0 1-.228.08h-.056l-1.671-.27a.349.349 0 0 1-.3-.34v-2.68a.326.326 0 0 1 .13-.26.344.344 0 0 1 .294-.07l1.67.33a.343.343 0 0 1 .284.34v2.6zm0-5.21a.325.325 0 0 1-.136.27.355.355 0 0 1-.218.08.269.269 0 0 1-.085-.02l-1.669-.4a.334.334 0 0 1-.269-.33v-2.67a.354.354 0 0 1 .141-.28.342.342 0 0 1 .308-.06l1.67.47a.345.345 0 0 1 .256.33v2.61zm3.1 25.55a.348.348 0 0 1-.295.34l-1.511.25a.125.125 0 0 1-.059.01.374.374 0 0 1-.228-.08.363.363 0 0 1-.126-.27V41.6a.347.347 0 0 1 .308-.34l1.511-.19a.391.391 0 0 1 .278.08.344.344 0 0 1 .121.26v2.48zm0-4.96a.34.34 0 0 1-.323.34l-1.512.13h-.029a.354.354 0 0 1-.239-.09.319.319 0 0 1-.115-.25v-2.54a.35.35 0 0 1 .337-.35l1.513-.07a.4.4 0 0 1 .258.1.354.354 0 0 1 .11.25v2.48zm0-4.96a.36.36 0 0 1-.353.35h-1.512a.375.375 0 0 1-.249-.1.341.341 0 0 1-.1-.24v-2.54a.366.366 0 0 1 .109-.26.389.389 0 0 1 .257-.09l1.512.06a.337.337 0 0 1 .34.34v2.48zm0-4.96a.337.337 0 0 1-.114.25.353.353 0 0 1-.24.09h-.027l-1.511-.12a.342.342 0 0 1-.326-.34v-2.54a.359.359 0 0 1 .4-.35l1.511.18a.35.35 0 0 1 .311.35v2.48zm0-4.96a.345.345 0 0 1-.125.26.375.375 0 0 1-.229.08h-.056l-1.512-.24a.358.358 0 0 1-.3-.35v-2.54a.324.324 0 0 1 .131-.26.39.39 0 0 1 .294-.08l1.511.31a.34.34 0 0 1 .283.33v2.49zm0-4.97a.358.358 0 0 1-.136.28.418.418 0 0 1-.218.07.236.236 0 0 1-.083-.01l-1.511-.36a.353.353 0 0 1-.27-.34v-2.54a.359.359 0 0 1 .14-.28.376.376 0 0 1 .31-.05l1.511.42a.346.346 0 0 1 .256.33v2.48z" data-name="Forma 1"/>
</svg>
