<svg xmlns="http://www.w3.org/2000/svg" viewBox="0 0 508.52 508.52"><path d="M254.26 0C113.845 0 0 113.845 0 254.26s113.845 254.26 254.26 254.26 254.26-113.845 254.26-254.26C508.52 113.813 394.675 0 254.26 0zm19.832 323.005c-18.593-1.43-26.379-10.647-40.936-19.514-8.009 42.016-17.798 82.317-46.784 103.325-8.963-63.47 13.126-111.143 23.392-161.773-17.48-29.462 2.098-88.673 38.965-74.085 45.354 17.957-39.315 109.427 17.544 120.869 59.338 11.918 83.588-103.007 46.784-140.383-53.204-53.967-154.781-1.24-142.29 76.024 3.051 18.879 22.534 24.6 7.787 50.693-34.039-7.501-44.209-34.389-42.906-70.176 2.098-58.575 52.632-99.575 103.325-105.264 64.105-7.183 124.238 23.519 132.533 83.81 9.375 68.047-28.923 141.782-97.414 136.474z" fill="#010002"/></svg>