<svg xmlns="http://www.w3.org/2000/svg" width="59.65" height="59.65">
  <path fill="#00b1ff" fill-rule="evenodd" d="M59.11 22.57l-5.44-5.44a1.768 1.768 0 0 0-2.38-.12 6.173 6.173 0 0 1-8.68-8.68 1.792 1.792 0 0 0-.12-2.39L37.05.51a1.787 1.787 0 0 0-2.53 0L.51 34.52a1.787 1.787 0 0 0 0 2.53l5.44 5.44a1.774 1.774 0 0 0 2.52 0 1.68 1.68 0 0 0 .18-.21c.12-.14.25-.28.38-.42a6.17 6.17 0 0 1 8.72 8.73 4.907 4.907 0 0 1-.48.43 1.817 1.817 0 0 0-.66 1.3 1.784 1.784 0 0 0 .52 1.35l5.44 5.44a1.787 1.787 0 0 0 2.53 0l34.01-34.02a1.774 1.774 0 0 0 0-2.52zM36.14 33.88a.41.41 0 0 1-.18.35.375.375 0 0 1-.25.08.675.675 0 0 1-.14-.02l-5.55-1.94a33.553 33.553 0 0 1-.42 4.6c-.03.23-.08.45-.12.65l2.89 1.61a.22.22 0 0 1 .12.2v.98a.206.206 0 0 1-.1.19.211.211 0 0 1-.13.05.235.235 0 0 1-.08-.02l-3.38-1.18a.767.767 0 0 1-1.3 0l-3.38 1.18a.2.2 0 0 1-.21-.03.206.206 0 0 1-.1-.19v-.98a.22.22 0 0 1 .12-.2l2.89-1.61c-.04-.2-.09-.42-.13-.65a35.364 35.364 0 0 1-.41-4.6l-5.55 1.94a.419.419 0 0 1-.39-.06.41.41 0 0 1-.18-.35v-1.8a.429.429 0 0 1 .22-.38l1.25-.69v-.57a.694.694 0 0 1 1.36-.19l1.05-.58v-.53a.691.691 0 0 1 .69-.69.7.7 0 0 1 .66.47l.93-.52a32.712 32.712 0 0 1 .37-3.59 10.172 10.172 0 0 1 .49-1.91.97.97 0 0 1 1.94 0 10.172 10.172 0 0 1 .49 1.91 32.712 32.712 0 0 1 .37 3.59l.93.52a.7.7 0 0 1 .66-.47.691.691 0 0 1 .69.69v.53l1.05.58a.694.694 0 0 1 1.36.19v.57l1.25.69a.429.429 0 0 1 .22.38v1.8zm11.72-4.76a1.865 1.865 0 0 1-2.64 0L30.5 14.4a1.8632 1.8632 0 0 1 2.63-2.64l14.73 14.73a1.871 1.871 0 0 1 0 2.63z" data-name="Forma 1"/>
</svg>
