<svg xmlns="http://www.w3.org/2000/svg" width="60" height="60" viewBox="0 0 60 69">
  <path fill="#00b1ff" fill-rule="evenodd" d="M16.661 55.45h-2.992V52.8a2.17 2.17 0 0 0-2.169-2.17H6.68a2.17 2.17 0 0 0-2.17 2.17v2.65H1.519A1.521 1.521 0 0 0 0 56.98v10.5A1.519 1.519 0 0 0 1.519 69h15.142a1.519 1.519 0 0 0 1.518-1.52v-10.5a1.521 1.521 0 0 0-1.518-1.53zm-5.351 0H6.869v-2.46h4.441v2.46zM30.516 0a5.68 5.68 0 1 1-5.66 5.68A5.668 5.668 0 0 1 30.516 0zm27.846 43.95h-1.218v-7.27h1a.548.548 0 0 0 .54-.55v-1.8a.539.539 0 0 0-.54-.54h-7.1a2.76 2.76 0 0 0-1.113-3.21l-5.6-3.58-.045-7.38a6.485 6.485 0 0 0-6.463-6.45H23.161a6.484 6.484 0 0 0-6.462 6.45l-.1 20.13a2.729 2.729 0 0 0 2.717 2.75h.014a2.73 2.73 0 0 0 2.731-2.72l.1-20.13a.528.528 0 1 1 1.055 0v46.06a3.277 3.277 0 1 0 6.554 0V39.43h1.415v26.28a3.278 3.278 0 1 0 6.555 0c0-42.91-.058-19.39-.06-46.04a.577.577 0 0 1 .562-.58.583.583 0 0 1 .581.56l.053 8.88a2.735 2.735 0 0 0 1.264 2.29l6.175 3.95v1.36a.548.548 0 0 0 .54.55h1v7.27h-1.218A1.645 1.645 0 0 0 45 45.6v18.86a1.636 1.636 0 0 0 1.638 1.64h1.218v1.78a1.118 1.118 0 1 0 2.235 0V66.1h4.819v1.78a1.118 1.118 0 1 0 2.235 0V66.1h1.217a1.637 1.637 0 0 0 1.639-1.64V45.6a1.645 1.645 0 0 0-1.639-1.65zm-3.453 0h-4.818v-7.27h4.818v7.27z"/>
</svg>
